<svg xmlns="http://www.w3.org/2000/svg" viewBox="0 0 500 500"><g id="freepik--background-complete--inject-47"><rect y="382.4" width="500" height="0.25" style="fill:#ebebeb"></rect><rect x="333.33" y="389.21" width="73.79" height="0.25" style="fill:#ebebeb"></rect><rect x="103.62" y="390.89" width="8.69" height="0.25" style="fill:#ebebeb"></rect><rect x="408.12" y="398.49" width="19.19" height="0.25" style="fill:#ebebeb"></rect><rect x="200" y="395.11" width="48.67" height="0.25" style="fill:#ebebeb"></rect><rect x="166.72" y="395.11" width="24.38" height="0.25" style="fill:#ebebeb"></rect><rect x="52.46" y="390.89" width="33.15" height="0.25" style="fill:#ebebeb"></rect><path d="M237,337.8H43.91a5.71,5.71,0,0,1-5.7-5.71V60.66A5.71,5.71,0,0,1,43.91,55H237a5.71,5.71,0,0,1,5.71,5.71V332.09A5.71,5.71,0,0,1,237,337.8ZM43.91,55.2a5.46,5.46,0,0,0-5.45,5.46V332.09a5.46,5.46,0,0,0,5.45,5.46H237a5.47,5.47,0,0,0,5.46-5.46V60.66A5.47,5.47,0,0,0,237,55.2Z" style="fill:#ebebeb"></path><path d="M453.31,337.8H260.21a5.72,5.72,0,0,1-5.71-5.71V60.66A5.72,5.72,0,0,1,260.21,55h193.1A5.71,5.71,0,0,1,459,60.66V332.09A5.71,5.71,0,0,1,453.31,337.8ZM260.21,55.2a5.47,5.47,0,0,0-5.46,5.46V332.09a5.47,5.47,0,0,0,5.46,5.46h193.1a5.47,5.47,0,0,0,5.46-5.46V60.66a5.47,5.47,0,0,0-5.46-5.46Z" style="fill:#ebebeb"></path><rect x="173.99" y="379.52" width="154.76" height="2.87" style="fill:#f0f0f0"></rect><path d="M388.07,263.25s12.81,18,31.59,2.63c17.44-14.25.3-48.73.3-48.73s20.27,6.37,23.54-20.36S418,176.85,418,176.85c10.25-20.38-1.5-21-10.27-19.2,2.66-5,3.5-11.14-2.83-16.31-14.49-11.83-24.37,2-24.37,2s-7.54-25.92-25.38-10.79V277.25C378.3,296.86,388.07,263.25,388.07,263.25Z" style="fill:#f5f5f5"></path><rect x="66.33" y="121.72" width="295.5" height="260.68" style="fill:#fafafa"></rect><polygon points="340.57 81.22 87.59 81.22 66.33 121.72 361.83 121.72 340.57 81.22" style="fill:#f0f0f0"></polygon><polygon points="317.45 355.64 317.45 328.87 300.09 328.87 300.09 302.11 173.7 302.11 173.7 328.87 191.06 328.87 191.06 355.64 208.43 355.64 208.43 382.4 334.81 382.4 334.81 355.64 317.45 355.64" style="fill:#f5f5f5"></polygon><polygon points="173.7 302.11 173.7 328.87 191.06 328.87 191.06 355.64 208.43 355.64 208.43 382.4 66.33 382.4 66.33 302.11 173.7 302.11" style="fill:#ebebeb"></polygon><rect x="173.7" y="326" width="126.39" height="2.87" style="fill:#f0f0f0"></rect><rect x="191.06" y="352.76" width="126.39" height="2.87" style="fill:#f0f0f0"></rect><rect x="81.89" y="145.33" width="83.11" height="156.78" style="fill:#f0f0f0"></rect><rect x="80.33" y="145.33" width="1.56" height="156.78" transform="translate(162.22 447.44) rotate(180)" style="fill:#e6e6e6"></rect><circle cx="152.58" cy="223.72" r="4.61" style="fill:#fafafa"></circle><rect x="193.85" y="145.33" width="120.81" height="120.56" style="fill:#f5f5f5"></rect><rect x="199.64" y="150.24" width="109.24" height="110.73" transform="translate(459.87 -48.65) rotate(90)" style="fill:#fff"></rect><path d="M198.89,151V260.23h3.26s14.94-35.75,19.1-109.24Z" style="fill:#fafafa"></path><path d="M309.63,151V260.23h-3.27S291.43,224.48,287.27,151Z" style="fill:#fafafa"></path><rect x="195.94" y="201.81" width="116.64" height="7.6" style="fill:#f5f5f5"></rect><rect x="195.94" y="201.81" width="116.64" height="7.6" transform="translate(459.87 -48.65) rotate(90)" style="fill:#f5f5f5"></rect></g><g id="freepik--Shadow--inject-47"><ellipse id="freepik--path--inject-47" cx="250" cy="416.24" rx="193.89" ry="11.32" style="fill:#f5f5f5"></ellipse></g><g id="freepik--Mailbox--inject-47"><path d="M153.09,356.85H184.6a4.48,4.48,0,0,1,4.48,4.48v54.91a0,0,0,0,1,0,0H148.61a0,0,0,0,1,0,0V361.32A4.48,4.48,0,0,1,153.09,356.85Z" transform="translate(337.68 773.09) rotate(180)" style="fill:#407BFF"></path><polygon points="189.07 356.85 148.61 356.85 148.61 380.68 189.07 371.91 189.07 356.85" style="opacity:0.2"></polygon><path d="M206.48,284.81a57,57,0,1,1,114,0v72h-114Z" style="fill:#407BFF"></path><path d="M206.48,284.81a57,57,0,1,1,114,0v72h-114Z" style="opacity:0.30000000000000004"></path><path d="M72.29,284.8v64.95a7.1,7.1,0,0,0,7.11,7.1H206.48V284.8a57,57,0,0,1,57-57H129.29a57,57,0,0,0-57,57Z" style="fill:#407BFF"></path><rect x="72.29" y="315.6" width="134.19" height="20" transform="translate(278.78 651.19) rotate(180)" style="opacity:0.2"></rect><rect x="72.29" y="289.37" width="134.19" height="20" transform="translate(278.78 598.75) rotate(180)" style="opacity:0.2"></rect><rect x="198.56" y="224.3" width="16.33" height="1" style="fill:#407BFF"></rect><rect x="181.22" y="224.3" width="8.78" height="1" style="fill:#407BFF"></rect><path d="M137.92,303.54v-81a2.22,2.22,0,0,0-2.59-2.19L107.06,225v11.73h21.61v66.63a10.61,10.61,0,1,0,9.25.19Z" style="fill:#263238"></path><path d="M214.59,365H360.83a4.05,4.05,0,0,0,4.06-4h0a4.06,4.06,0,0,0-4.06-4.06H206.48A8.11,8.11,0,0,0,214.59,365Z" style="fill:#407BFF"></path><path d="M214.59,365h59.76a4.05,4.05,0,0,0,4.06-4h0a4.06,4.06,0,0,0-4.06-4.06H206.48A8.11,8.11,0,0,0,214.59,365Z" style="opacity:0.2"></path></g><g id="freepik--Character--inject-47"><polygon points="354.48 407.38 346.02 407.45 343.71 387.86 352.18 387.79 354.48 407.38" style="fill:#ff8b7b"></polygon><polygon points="343.71 387.87 344.9 397.97 353.37 397.89 352.18 387.8 343.71 387.87" style="opacity:0.2"></polygon><polygon points="423.24 386.61 415.96 390.93 404.11 375.16 411.39 370.84 423.24 386.61" style="fill:#ff8b7b"></polygon><polygon points="404.12 375.16 410.22 383.29 417.51 378.97 411.4 370.84 404.12 375.16" style="opacity:0.2"></polygon><path d="M346,406.47l9.25-.08a.8.8,0,0,1,.76.57l2.24,7.51a1.15,1.15,0,0,1-1.11,1.51c-3.34,0-8.17-.18-12.37-.14-4.9,0-7.08.35-12.83.4-3.48,0-4.7-3.48-3.27-3.81,6.51-1.5,9.88-1.7,15.34-5.28A3.72,3.72,0,0,1,346,406.47Z" style="fill:#263238"></path><path d="M342.51,408a13.39,13.39,0,0,0,2.71-.33.18.18,0,0,0,.15-.17.2.2,0,0,0-.11-.2c-.4-.2-4-1.9-4.93-1.3a.61.61,0,0,0-.28.54,1.19,1.19,0,0,0,.45,1A3.26,3.26,0,0,0,342.51,408Zm2-.6c-1.83.32-3.22.25-3.78-.2a.81.81,0,0,1-.3-.66.22.22,0,0,1,.09-.2C341.07,406,343.08,406.72,344.53,407.38Z" style="fill:#407BFF"></path><path d="M345.18,407.66a.28.28,0,0,0,.12,0,.18.18,0,0,0,.07-.19c0-.16-.66-3.8-2.68-3.57-.53.06-.68.32-.71.54-.14,1,2,2.78,3.12,3.24Zm-2.32-3.41c1.21,0,1.82,2,2,2.84-1.11-.63-2.6-2.07-2.52-2.63,0,0,0-.17.36-.21Z" style="fill:#407BFF"></path><path d="M358.28,173.63c-1.11,6.43-2.52,12.6-4.23,18.83q-1.28,4.66-2.83,9.29c-.54,1.55-1.05,3.09-1.66,4.63-.29.77-.58,1.54-.91,2.31l-.47,1.16-.24.57-.13.31-.18.39a27.62,27.62,0,0,1-3,5c-1,1.41-2.09,2.71-3.16,4-2.14,2.52-4.37,4.86-6.63,7.16a184.24,184.24,0,0,1-14.22,12.87l-4.51-4.49c3.85-4.89,7.73-9.83,11.48-14.72,1.87-2.44,3.69-4.92,5.39-7.37.85-1.22,1.66-2.45,2.37-3.65a20,20,0,0,0,1.64-3.22c.06-.12.2-.6.31-.92l.34-1.06c.24-.69.45-1.41.66-2.13.43-1.43.83-2.89,1.24-4.34.78-2.93,1.51-5.89,2.22-8.87,1.38-6,2.71-12.06,3.91-18Z" style="fill:#ff8b7b"></path><path d="M361.27,174.8c-.51,9.66-5.19,23.22-5.19,23.22l-13.14-5-5.41-2a76.33,76.33,0,0,1,4.52-18.69c4-10.3,13.27-12.81,18-5.23C361.15,168.81,361.44,171.59,361.27,174.8Z" style="fill:#407BFF"></path><path d="M361.27,174.8c-.51,9.66-5.19,23.22-5.19,23.22l-13.14-5A74,74,0,0,1,346,183C349.28,174.42,356.28,171.25,361.27,174.8Z" style="opacity:0.2"></path><path d="M318.24,234.71l-8.92,1.46-.07,8.75s8.56-1.2,11.91-5.3Z" style="fill:#ff8b7b"></path><polygon points="301.06 241.24 301.25 246.99 309.25 244.92 309.31 236.17 301.06 241.24" style="fill:#ff8b7b"></polygon><path d="M351.88,236.17s-12.71,46.27-16.08,72.17c-3.5,26.94,4.76,84.71,4.76,84.71l15.29-.33S357,333.83,362,307.34c5.48-28.87,15.92-71.73,15.92-71.73Z" style="fill:#263238"></path><polygon points="357.73 393.41 339.75 393.77 338.43 387.8 357.5 387.75 357.73 393.41" style="fill:#407BFF"></polygon><polygon points="357.73 393.41 339.75 393.77 338.43 387.8 357.5 387.75 357.73 393.41" style="fill:#fff;opacity:0.4"></polygon><path d="M415.45,390.09l7.95-4.72a.8.8,0,0,1,1,.11l5.71,5.36a1.15,1.15,0,0,1-.2,1.87c-2.9,1.66-7.15,4-10.76,6.09-4.21,2.51-6,3.87-10.89,6.8-3,1.78-5.81-.63-4.74-1.64,4.87-4.58,7.68-6.45,10.6-12.28A3.67,3.67,0,0,1,415.45,390.09Z" style="fill:#263238"></path><path d="M413.19,393.15a14.55,14.55,0,0,0,2.18-1.64.22.22,0,0,0,.05-.23.19.19,0,0,0-.2-.12c-.45,0-4.38.34-4.91,1.36a.58.58,0,0,0,0,.61,1.19,1.19,0,0,0,.87.61A3.28,3.28,0,0,0,413.19,393.15Zm1.45-1.54c-1.42,1.2-2.66,1.84-3.37,1.73a.81.81,0,0,1-.59-.41.22.22,0,0,1,0-.23C411,392.16,413.05,391.77,414.64,391.61Z" style="fill:#407BFF"></path><path d="M415.34,391.53a.27.27,0,0,0,.08-.1.18.18,0,0,0,0-.2c-.1-.12-2.49-3-4.11-1.74-.43.32-.43.63-.35.83.36.89,3.16,1.38,4.33,1.24Zm-3.72-1.78c1.05-.61,2.57.79,3.19,1.43-1.29,0-3.29-.48-3.51-1,0,0-.06-.15.21-.35Z" style="fill:#407BFF"></path><path d="M367.69,235.83s0,45.46,1.19,71.55C370.1,334.52,404,381.22,404,381.22l13.05-8s-22.9-44.44-22.55-71.39c.38-29.39,2.66-66.66,2.66-66.66Z" style="fill:#263238"></path><polygon points="418.73 373.21 404.28 382.03 400.67 378.44 416.57 367.84 418.73 373.21" style="fill:#407BFF"></polygon><polygon points="418.73 373.21 404.28 382.03 400.67 378.44 416.57 367.84 418.73 373.21" style="fill:#fff;opacity:0.4"></polygon><path d="M350.83,163s-9.45,25.78,1.05,73.18l45.28-1c.16-6.95-4.93-40.76,1.08-73.65A116.59,116.59,0,0,0,383,160a163.49,163.49,0,0,0-19.24.41A84.52,84.52,0,0,0,350.83,163Z" style="fill:#407BFF"></path><path d="M380.67,138.33c-1.08,6.21-2.05,17.59,2.37,21.63,0,0-1.56,6.35-13.06,6.56-9.19.17-6.18-6.15-6.18-6.15,6.87-1.8,6.58-6.92,5.27-11.7Z" style="fill:#ff8b7b"></path><path d="M375.94,142.54l-6.86,6.12a19.61,19.61,0,0,1,.66,3.4c2.63-.43,6.2-3.41,6.42-6.18A9.22,9.22,0,0,0,375.94,142.54Z" style="opacity:0.2"></path><path d="M388.14,177.93l7.55,5.44c-.33,5.79-.43,11.42-.38,16.7C390.68,195.41,388.09,186.84,388.14,177.93Z" style="opacity:0.2"></path><path d="M381.39,156.87s-2.17,5.22-12.3,9.66a12.62,12.62,0,0,1,7.12,7.3s7.37-7,9.34-14Z" style="fill:#fff"></path><path d="M361.52,171.94s3.1-4.5,7.57-5.41c-1.57-1.92-3.19-6.18-1.69-8.2a19.3,19.3,0,0,0-3.81,1.45S357.51,163.43,361.52,171.94Z" style="fill:#fff"></path><path d="M360.63,120.55c-4.13,1.77-6.18,12.89-.8,15.31S368.45,117.21,360.63,120.55Z" style="fill:#263238"></path><path d="M381.21,129c-.34,8.4-.11,13.33-4.25,17.72-6.23,6.61-16.66,3-18.84-5.33-2-7.5-1.08-20,7.05-23.48A11.46,11.46,0,0,1,381.21,129Z" style="fill:#ff8b7b"></path><path d="M368.54,131.61c0,.68-.33,1.24-.78,1.25s-.82-.54-.83-1.22.33-1.24.78-1.25S368.53,130.92,368.54,131.61Z" style="fill:#263238"></path><path d="M360.82,131.77c0,.68-.33,1.24-.78,1.25s-.82-.53-.83-1.22.33-1.24.78-1.25S360.81,131.09,360.82,131.77Z" style="fill:#263238"></path><path d="M363.29,132.06a24.5,24.5,0,0,1-3.14,5.91,3.93,3.93,0,0,0,3.27.54Z" style="fill:#ff5652"></path><path d="M365.45,140.35h0a5.71,5.71,0,0,0,4.7-2.4.19.19,0,0,0-.07-.27.2.2,0,0,0-.27.06,5.42,5.42,0,0,1-4.37,2.21.2.2,0,0,0-.19.21A.2.2,0,0,0,365.45,140.35Z" style="fill:#263238"></path><path d="M370.81,129.07a.43.43,0,0,0,.25-.09.4.4,0,0,0,.06-.56,4,4,0,0,0-3.3-1.59.4.4,0,0,0,.07.8h0a3.22,3.22,0,0,1,2.6,1.28A.39.39,0,0,0,370.81,129.07Z" style="fill:#263238"></path><path d="M357.38,129.19a.42.42,0,0,0,.37-.23A3.15,3.15,0,0,1,360,127.1a.41.41,0,0,0,.34-.46.42.42,0,0,0-.46-.34,4,4,0,0,0-2.83,2.32.39.39,0,0,0,.19.53A.38.38,0,0,0,357.38,129.19Z" style="fill:#263238"></path><path d="M399.69,167.5c1.89,2.72,3.55,5.38,5.26,8.12s3.29,5.5,4.86,8.3a158.81,158.81,0,0,1,8.48,17.55c.32.75.6,1.55.89,2.33l.44,1.18.22.6.26.82a18.11,18.11,0,0,1,.68,6.65,25.24,25.24,0,0,1-3.81,11,43.57,43.57,0,0,1-6.51,8.14c-1.19,1.2-2.45,2.31-3.73,3.38a48,48,0,0,1-4.05,3l-4.07-4.88c.89-1,1.9-2.24,2.8-3.39s1.78-2.38,2.61-3.58a43.41,43.41,0,0,0,4.15-7.34,16.47,16.47,0,0,0,1.53-6.84,7.93,7.93,0,0,0-.56-2.63l-.8-1.78c-.31-.66-.59-1.33-.93-2-2.58-5.35-5.56-10.67-8.69-15.93s-6.41-10.54-9.66-15.59Z" style="fill:#ff8b7b"></path><path d="M398.24,161.55c7.91,1.71,19.29,26.11,19.29,26.11L396.34,198A95.12,95.12,0,0,1,387,179.64C383.31,169.33,389.77,159.71,398.24,161.55Z" style="fill:#407BFF"></path><path d="M390.71,224.3,412,287.19a9.86,9.86,0,0,1-6.15,12.46L262.74,348.17A9.85,9.85,0,0,1,250.28,342L229,279.13a9.54,9.54,0,0,1-.5-3.71,9.86,9.86,0,0,1,6.65-8.75l143.14-48.52a9.84,9.84,0,0,1,10.59,2.9A9.51,9.51,0,0,1,390.71,224.3Z" style="fill:#407BFF"></path><path d="M390.71,224.3,412,287.19a9.86,9.86,0,0,1-6.15,12.46L262.74,348.17A9.85,9.85,0,0,1,250.28,342L229,279.13a9.54,9.54,0,0,1-.5-3.71,9.86,9.86,0,0,1,6.65-8.75l143.14-48.52a9.84,9.84,0,0,1,10.59,2.9A9.51,9.51,0,0,1,390.71,224.3Z" style="fill:#fff;opacity:0.8"></path><path d="M388.84,221.05,329.63,274a29.64,29.64,0,0,1-22,7.45l-79.18-6a9.86,9.86,0,0,1,6.65-8.75l143.14-48.52A9.84,9.84,0,0,1,388.84,221.05Z" style="fill:#407BFF;opacity:0.6000000000000001"></path><path d="M400.75,232.52l-9.1.06,5.61,9.19s6.48-1.57,7.08-4.83Z" style="fill:#ff8b7b"></path><polygon points="385.96 237.97 390.95 245.36 397.26 241.77 391.65 232.58 385.96 237.97" style="fill:#ff8b7b"></polygon><path d="M386.94,122.27c2,5.48-4.05,18.17-7.57,17.93s-4.48-13.43-2.48-16.71c-1.9.88-20,.91-19.91-1,.46-6.94,12.77-9.46,26.27-6C386.76,116.32,388.07,117.28,386.94,122.27Z" style="fill:#263238"></path><path d="M385.19,138.15a7.9,7.9,0,0,1-4.9,3.63c-2.72.66-4-1.79-3.14-4.31.75-2.27,3.07-5.34,5.77-4.88S386.51,135.92,385.19,138.15Z" style="fill:#ff8b7b"></path><path d="M346.19,119l41.54,4.8a.8.8,0,0,0,.88-.7h0a.8.8,0,0,0-.69-.88l-41.55-4.79a.8.8,0,0,0-.88.69h0A.8.8,0,0,0,346.19,119Z" style="fill:#407BFF"></path><path d="M388.61,123.06l.72-6.2a2.72,2.72,0,0,0-2.5-2.68l-25.51-4.82c-1.89-.36-3.63.7-3.62,2.2l0,7.94Z" style="fill:#407BFF"></path><polygon points="360.08 117.67 370.88 118.92 371.25 115.77 360.09 114.49 360.08 117.67" style="fill:#fff"></polygon></g></svg>